<?xml version="1.0" encoding="UTF-8"?>
<svg id="Layer_1" xmlns="http://www.w3.org/2000/svg" viewBox="0 0 181.71 181.71">
  <defs>
    <style>
      .cls-1 {
        fill: #d68077;
      }

      .cls-2 {
        fill: #eeae66;
      }

      .cls-3 {
        fill: #9fadc5;
      }

      .cls-4 {
        fill: #d4dce5;
      }

      .cls-5 {
        fill: #eeaf66;
      }

      .cls-6 {
        fill: #d88952;
      }

      .cls-7 {
        fill: #edb885;
      }

      .cls-8 {
        fill: #335169;
      }

      .cls-9 {
        fill: #b84a47;
      }

      .cls-10 {
        fill: #e6b07d;
      }

      .cls-11 {
        fill: #9faec6;
      }

      .cls-12 {
        fill: #b84a48;
      }

      .cls-13 {
        fill: #d88953;
      }
    </style>
  </defs>
  <path class="cls-4" d="M17.18,181.61c-4.05.02-8.1.09-12.14.04-2.84-.04-4.91-2.17-4.92-5.06-.04-9.18-.28-18.36.08-27.53.27-7.01,2.91-13.3,7.59-18.69,6.21-7.13,14.09-10.7,23.38-11.58,1.4-.13,2.79-.4,4.2-.35,1.8,3.31,2.79,6.95,4.19,10.43,1.66,4.11,3.14,8.29,4.81,12.4.91,2.24,2.06,2.62,4.09,1.62,3.74-1.85,7.5-3.68,11.2-5.6,2.74-1.42,5.65-2.52,8.19-4.31.23,0,.45,0,.68,0,6.61,3.79,13.56,6.93,20.37,10.34,1.17.58,2.09-.27,2.69-1.21.46-.73.72-1.59,1.04-2.4,2.8-7.22,5.59-14.44,8.38-21.66,3.51.87,7.17.83,10.67,1.85,5.09,1.49,9.85,3.56,13.74,7.3.27.26.68.39,1.03.57-.65,7.83-2.32,15.41-5.29,22.7-.36.17-.71.37-1.08.51-4.53,1.67-6.49,4.48-6.52,9.34-.01,1.96-.05,3.91-.08,5.87-2.02.25-3.66,1.25-5.1,2.62-2.69,2.56-3.04,5.82-2.96,9.29.04,1.55.4,2.76,1.79,3.54-15.45.02-30.9.04-46.35.04-12.41,0-24.83,0-37.24-.01.01-5.46.03-10.92.03-16.38,0-2.42-1.18-3.88-3.09-3.87-1.8.01-3.37,1.72-3.38,3.82-.02,5.46.01,10.92.03,16.38Z"/>
  <path class="cls-1" d="M107.1,71.44c-.35,14.03-6.36,24.94-17.99,32.79-.55.37-1.25.57-1.53,1.26-1.34.61-2.67,1.23-4.02,1.82-3.71,1.63-7.59,2.7-11.61,3.01-8.24.63-16.02-.97-23.18-5.22-5.89-3.94-10.85-8.75-14.31-15.02-3.21-5.82-4.9-12.03-5.2-18.64,0-6.47,0-12.93.01-19.4.74-.02,1.48-.08,2.22-.06,12.77.35,24.69-2.6,35.68-9.15.97-.58,1.56-.27,2.35.2,5.9,3.47,12.2,5.91,18.89,7.44,6.16,1.41,12.4,1.54,18.67,1.57,0,6.47,0,12.94.01,19.41Z"/>
  <path class="cls-8" d="M107.09,52.03c-6.26-.04-12.5-.16-18.67-1.57-6.68-1.53-12.98-3.97-18.89-7.44-.78-.46-1.37-.78-2.35-.2-10.99,6.55-22.91,9.5-35.68,9.15-.74-.02-1.48.04-2.22.06-2.17-.17-4.33-.1-6.47.35-.25-7.92.03-15.75,2.99-23.28C33.21,10.29,52.42-1.76,72.03.21c20.86,2.09,37.05,16.9,40.83,37.25.92,4.96.67,9.94.69,14.93-2.14-.45-4.3-.52-6.47-.35Z"/>
  <path class="cls-6" d="M121.14,150.46c2.97-7.28,4.65-14.87,5.29-22.7.49-3.9.55-7.83.66-11.76,0,0,.09.04.09.04h.1c10.69-.02,21.39-.03,32.08-.04.16.01.33.02.49.03.36,8.15.81,16.29,2.74,24.27.84,3.48,2.08,6.82,3.29,10.17-.15,0-.3.01-.45.02-14.58,0-29.16,0-43.75,0-.19-.01-.38-.02-.57-.03Z"/>
  <path class="cls-6" d="M107.18,181.62c-1.39-.78-1.75-1.99-1.79-3.54-.08-3.47.27-6.73,2.96-9.29,1.45-1.38,3.08-2.37,5.1-2.62,3.48-.48,6.98-.28,10.48-.29,13.09-.02,26.19,0,39.28,0,3.49,0,6.99-.09,10.48.3,4.55.9,7.83,4.6,7.96,9.19.15,5.39.52,6.37-5.99,6.34-22.82-.12-45.65-.07-68.47-.09Z"/>
  <path class="cls-13" d="M128.55,100.18c-2.48-3.59-4.28-7.38-4.63-11.87-.78-10.05,7.59-19.91,17.66-20.56,8.41-.54,14.99,2.69,19.04,10.08,4,7.29,3.29,14.53-1.56,21.32-.23.32-.37.7-.55,1.05-9.99,0-19.99,0-29.98-.01Z"/>
  <path class="cls-2" d="M173.69,166.18c-3.48-.4-6.98-.3-10.48-.3-13.09,0-26.19-.01-39.28,0-3.49,0-6.99-.19-10.48.29.03-1.96.07-3.91.08-5.87.03-4.86,1.99-7.67,6.52-9.34.37-.14.72-.34,1.08-.51.19.01.38.02.56.03.55.59,1.27.36,1.91.37,13.31.01,26.62.01,39.92,0,.65,0,1.37.23,1.91-.37.15,0,.3-.01.45-.02.55.24,1.08.52,1.64.72,3.87,1.43,5.98,4.42,6.04,8.57.03,2.14.07,4.28.1,6.42Z"/>
  <path class="cls-5" d="M128.55,100.18c9.99,0,19.99,0,29.98.01,5.33.03,8.99,3.52,9.26,8.83.04.87.04,1.75,0,2.62-.12,2.75-1.55,4.17-4.3,4.28-1.21.05-2.42.06-3.62.09-.16-.01-.33-.02-.49-.03-.4-.51-.97-.38-1.5-.38-9.63,0-19.26,0-28.9,0-.59,0-1.23-.12-1.69.42h-.1s-.09-.03-.09-.03c-1.21-.02-2.42-.03-3.62-.07-1.67-.06-3.03-.71-3.74-2.28-2.16-4.76.72-11.34,5.65-13.03,1.03-.35,2.09-.49,3.17-.44Z"/>
  <path class="cls-9" d="M48.79,105.1c7.16,4.25,14.94,5.86,23.18,5.22,4.02-.31,7.9-1.38,11.61-3.01,1.35-.59,2.68-1.21,4.02-1.82.04,3.49.08,6.98.12,10.47-1.5,1.35-2.98,2.72-4.49,4.05-4.89,4.33-9.79,8.64-14.69,12.96-.23,0-.45,0-.68,0-.88-.83-1.73-1.68-2.63-2.48-5.51-4.85-11.02-9.68-16.54-14.51.03-3.63.07-7.26.1-10.89Z"/>
  <path class="cls-3" d="M48.68,115.99c5.51,4.84,11.03,9.67,16.54,14.51.9.8,1.75,1.65,2.63,2.48-2.54,1.79-5.45,2.89-8.19,4.31-3.71,1.92-7.46,3.75-11.2,5.6-2.03,1-3.18.62-4.09-1.62-1.67-4.11-3.15-8.29-4.81-12.4-1.4-3.47-2.39-7.11-4.19-10.43-.08-1.47.5-2.54,1.76-3.36,1.06-.69,2-1.57,3-2.35,2.07-1.62,2.94-1.56,4.88.17,1.19,1.06,2.45,2.06,3.68,3.09Z"/>
  <path class="cls-3" d="M68.53,132.98c4.9-4.32,9.8-8.64,14.69-12.96,1.51-1.34,3-2.7,4.49-4.05,1.37-1.16,2.76-2.31,4.12-3.49,1.22-1.05,2.44-1.28,3.78-.2,1.41,1.13,2.87,2.18,4.29,3.29.78.62,1.11,1.48,1.1,2.47-2.79,7.22-5.58,14.44-8.38,21.66-.32.82-.58,1.68-1.04,2.4-.6.94-1.52,1.79-2.69,1.21-6.81-3.41-13.75-6.55-20.37-10.34Z"/>
  <path class="cls-9" d="M22.82,52.38c2.14-.45,4.3-.52,6.47-.35,0,6.47,0,12.93-.01,19.4-1.68-.05-3.39.09-5.02-.2-4.16-.73-7.24-4.02-7.87-8.12-.61-3.98,1.38-7.94,5.03-9.97.47-.26.94-.51,1.41-.76Z"/>
  <path class="cls-12" d="M107.09,52.03c2.17-.17,4.33-.1,6.47.35,4.99,2.65,7.21,6.45,6.4,10.92-.86,4.74-4.76,8.03-9.63,8.12-1.07.02-2.15.02-3.22.02,0-6.47,0-12.94-.01-19.41Z"/>
  <path class="cls-11" d="M17.18,181.61c-.01-5.46-.05-10.92-.03-16.38,0-2.1,1.59-3.81,3.38-3.82,1.91-.02,3.09,1.45,3.09,3.87,0,5.46-.02,10.92-.03,16.38-2.14-.01-4.27-.03-6.41-.04Z"/>
  <path class="cls-10" d="M165.45,150.48c-.54.6-1.26.37-1.91.37-13.31.01-26.62.01-39.92,0-.65,0-1.37.23-1.91-.37,14.58,0,29.16,0,43.75,0Z"/>
  <path class="cls-7" d="M127.29,116.03c.46-.54,1.1-.42,1.69-.42,9.63,0,19.26,0,28.9,0,.52,0,1.09-.12,1.5.38-10.69.01-21.39.02-32.08.04Z"/>
</svg>